<svg width="181" height="95" viewBox="0 0 181 95" fill="none" xmlns="http://www.w3.org/2000/svg">
<path d="M135.718 33.952C135.718 31.456 136.282 29.232 137.41 27.28C138.573 25.328 140.124 23.776 142.062 22.624C144 21.472 146.168 20.896 148.564 20.896C150.467 20.896 152.194 21.296 153.745 22.096C155.33 22.896 156.582 24.032 157.498 25.504L157.604 21.664H164V46H157.604L157.498 42.16C155.524 45.232 152.405 46.768 148.141 46.768C145.745 46.768 143.595 46.224 141.692 45.136C139.824 44.016 138.361 42.496 137.304 40.576C136.247 38.624 135.718 36.416 135.718 33.952ZM156.695 33.856C156.695 31.616 156.453 29.808 155.043 28.432C153.634 27.024 152.353 26.32 150.097 26.32C147.842 26.32 145.991 27.024 144.546 28.432C143.137 29.808 142.432 31.616 142.432 33.856C142.432 36.064 143.137 37.872 144.546 39.28C145.991 40.688 147.842 41.392 150.097 41.392C152.353 41.392 153.634 40.688 155.043 39.28C156.453 37.872 156.695 36.064 156.695 33.856Z" fill="black"/>
<path fill-rule="evenodd" clip-rule="evenodd" d="M136.551 26.7682C137.798 24.6742 139.468 23.0022 141.551 21.7644C143.654 20.5147 145.999 19.896 148.564 19.896C150.61 19.896 152.495 20.327 154.199 21.2052C155.081 21.6507 155.873 22.1933 156.571 22.8318L156.631 20.664H165V47H156.631L156.571 44.8291C154.446 46.8026 151.605 47.768 148.141 47.768C145.587 47.768 143.264 47.1865 141.195 46.0041L141.186 45.999L141.178 45.9936C139.157 44.7821 137.57 43.1322 136.428 41.0584L136.425 41.0523C135.28 38.9385 134.718 36.5637 134.718 33.952C134.718 31.2997 135.319 28.8997 136.544 26.7797L136.551 26.7682ZM156.533 43.4385C156.88 43.0468 157.202 42.6207 157.498 42.16L157.604 46H164V21.664H157.604L157.498 25.504C157.209 25.0406 156.888 24.6105 156.533 24.2138C155.761 23.3501 154.831 22.6442 153.745 22.096C152.194 21.296 150.467 20.896 148.564 20.896C146.168 20.896 144 21.472 142.062 22.624C140.124 23.776 138.573 25.328 137.41 27.28C136.282 29.232 135.718 31.456 135.718 33.952C135.718 36.416 136.247 38.624 137.304 40.576C138.361 42.496 139.824 44.016 141.692 45.136C143.595 46.224 145.745 46.768 148.141 46.768C151.766 46.768 154.563 45.6581 156.533 43.4385ZM154.337 29.1395C153.678 28.482 153.104 28.0432 152.475 27.7592C151.854 27.478 151.116 27.32 150.097 27.32C148.069 27.32 146.48 27.9443 145.244 29.1482C144.055 30.3095 143.432 31.8454 143.432 33.856C143.432 35.8277 144.051 37.3695 145.249 38.5681C146.484 39.7692 148.071 40.392 150.097 40.392C151.116 40.392 151.854 40.234 152.475 39.9528C153.104 39.6688 153.678 39.23 154.337 38.5725C155.442 37.4682 155.695 36.028 155.695 33.856C155.695 31.645 155.44 30.2162 154.345 29.1476L154.337 29.1395ZM144.546 39.28C143.137 37.872 142.432 36.064 142.432 33.856C142.432 31.616 143.137 29.808 144.546 28.432C145.991 27.024 147.842 26.32 150.097 26.32C152.353 26.32 153.634 27.024 155.043 28.432C156.453 29.808 156.695 31.616 156.695 33.856C156.695 36.064 156.453 37.872 155.043 39.28C153.634 40.688 152.353 41.392 150.097 41.392C147.842 41.392 145.991 40.688 144.546 39.28Z" fill="black"/>
<path d="M121.968 19.5H115.572V46H122.233V34.72C122.233 32.224 122.796 30.304 123.924 28.96C125.052 27.584 126.655 26.896 128.735 26.896C129.862 26.896 130.973 27.088 132.065 27.472L132.647 21.808C132.647 21.808 131.365 21 128.612 21C125.858 21 123.656 22.5 123.656 22.5C123.656 22.5 122.554 23.5 121.968 24.5V19.5Z" fill="black"/>
<path fill-rule="evenodd" clip-rule="evenodd" d="M114.572 18.5H122.968V21.7737L122.978 21.7651L122.981 21.7616L122.983 21.7605C122.983 21.7604 122.984 21.7597 123.656 22.5C123.656 22.5 123.346 22.781 122.968 23.194C122.633 23.5601 122.244 24.0301 121.968 24.5V19.5H115.572V46H122.233V34.72C122.233 32.224 122.796 30.304 123.924 28.96C125.052 27.584 126.655 26.896 128.735 26.896C129.528 26.896 130.313 26.9911 131.09 27.1813C131.416 27.2614 131.741 27.3583 132.065 27.472L132.647 21.808L133.18 20.9621L133.705 21.293L132.93 28.8361L131.733 28.4155C130.745 28.0679 129.746 27.896 128.735 27.896C126.899 27.896 125.602 28.49 124.698 29.5939L124.69 29.6029C123.766 30.7039 123.233 32.3614 123.233 34.72V47H114.572V18.5ZM132.647 21.808C132.647 21.808 131.365 21 128.612 21C125.858 21 123.656 22.5 123.656 22.5C123.093 21.6735 123.093 21.6733 123.093 21.6731L123.095 21.6719L123.098 21.6698L123.107 21.664L123.134 21.6462C123.156 21.6316 123.187 21.6118 123.226 21.5876C123.303 21.5392 123.413 21.4728 123.552 21.3945C123.829 21.2381 124.226 21.0326 124.715 20.8277C125.686 20.4209 127.06 20 128.612 20C130.088 20 131.194 20.2168 131.952 20.4472C132.331 20.5623 132.621 20.6801 132.824 20.7748C132.926 20.8221 133.007 20.8635 133.066 20.8958C133.095 20.912 133.12 20.9259 133.139 20.9371L133.163 20.9518L133.173 20.9575L133.176 20.96L133.178 20.9611L133.18 20.9621C133.18 20.9624 133.18 20.9621 132.647 21.808ZM123.656 22.5L122.984 21.7597L123.035 21.7127L123.093 21.6731L123.656 22.5Z" fill="black"/>
<path d="M96.4268 26.6561H90.9819V21.6641H96.4268V14.9921H103.088V21.6641H109.695V26.6561H103.088V46.0001H96.4268V26.6561Z" fill="black"/>
<path fill-rule="evenodd" clip-rule="evenodd" d="M89.9819 27.6561V20.6641H95.4268V13.9921H104.088V20.6641H110.695V27.6561H104.088V47.0001H95.4268V27.6561H89.9819ZM96.4268 26.6561V46.0001H103.088V26.6561H109.695V21.6641H103.088V14.9921H96.4268V21.6641H90.9819V26.6561H96.4268Z" fill="black"/>
<path d="M79.022 7.12H85.6827V46H79.022V7.12Z" fill="black"/>
<path fill-rule="evenodd" clip-rule="evenodd" d="M78.022 6.12H86.6827V47H78.022V6.12ZM79.022 7.12V46H85.6827V7.12H79.022Z" fill="black"/>
<path d="M35 30.688V7H42.2951V30.16C42.2951 37.296 45.7136 40.864 52.5506 40.864C59.4228 40.864 62.8589 37.296 62.8589 30.16V7H70.2068V30.688C70.2068 35.808 68.6562 39.776 65.5549 42.592C62.4536 45.376 58.1012 46.768 52.4977 46.768C46.9647 46.768 42.6651 45.376 39.5991 42.592C36.533 39.776 35 35.808 35 30.688Z" fill="black"/>
<path fill-rule="evenodd" clip-rule="evenodd" d="M34 6H43.2951V30.16C43.2951 33.5843 44.116 35.9671 45.581 37.4962C47.0385 39.0174 49.2974 39.864 52.5506 39.864C55.8227 39.864 58.0955 39.0166 59.5615 37.4944C61.0342 35.9651 61.8589 33.5831 61.8589 30.16V6H71.2068V30.688C71.2068 36.0223 69.5825 40.2856 66.2271 43.3324L66.2229 43.3362C62.8828 46.3346 58.2617 47.768 52.4977 47.768C46.8011 47.768 42.2314 46.3329 38.9269 43.3324L38.9226 43.3285C35.6044 40.2809 34 36.0187 34 30.688V6ZM35 30.688C35 35.808 36.533 39.776 39.5991 42.592C42.6651 45.376 46.9647 46.768 52.4977 46.768C58.1012 46.768 62.4536 45.376 65.5549 42.592C68.6562 39.776 70.2068 35.808 70.2068 30.688V7H62.8589V30.16C62.8589 37.296 59.4228 40.864 52.5506 40.864C45.7136 40.864 42.2951 37.296 42.2951 30.16V7H35V30.688Z" fill="black"/>
<path d="M171.962 47.8881C170.938 47.8881 170.058 47.5361 169.322 46.8321C168.618 46.1281 168.266 45.2481 168.266 44.1921C168.266 43.2001 168.618 42.3521 169.322 41.6481C170.058 40.9121 170.938 40.5441 171.962 40.5441C172.986 40.5441 173.85 40.9121 174.554 41.6481C175.258 42.3521 175.61 43.2001 175.61 44.1921C175.61 45.2481 175.258 46.1281 174.554 46.8321C173.85 47.5361 172.986 47.8881 171.962 47.8881ZM168.842 53.3601C168.842 53.2001 168.714 53.0721 168.458 52.9761C168.234 52.8801 168.01 52.8321 167.786 52.8321V51.9201H176.042V52.8321C175.818 52.8321 175.578 52.8801 175.322 52.9761C175.098 53.0721 174.986 53.2001 174.986 53.3601V72.5601C174.986 72.7201 175.098 72.8481 175.322 72.9441C175.578 73.0401 175.818 73.0881 176.042 73.0881V74.0001H167.786V73.0881C168.01 73.0881 168.234 73.0401 168.458 72.9441C168.714 72.8481 168.842 72.7201 168.842 72.5601V53.3601Z" fill="#EC6C1F"/>
<path d="M164.18 50.48V58.208H163.268C163.268 57.984 163.22 57.728 163.124 57.44C163.028 57.152 162.9 56.992 162.74 56.96H162.404C161.412 56.96 160.404 57.248 159.38 57.824C158.388 58.368 157.556 59.104 156.884 60.032C156.244 60.928 155.924 61.888 155.924 62.912V72.56C155.924 72.72 156.036 72.848 156.26 72.944C156.516 73.04 156.756 73.088 156.98 73.088V74H148.916V73.088C149.14 73.088 149.364 73.04 149.588 72.944C149.844 72.848 149.972 72.72 149.972 72.56V53.36C149.972 53.2 149.844 53.072 149.588 52.976C149.364 52.88 149.14 52.832 148.916 52.832V51.92H155.924V53.984C156.788 53.184 157.828 52.544 159.044 52.064C160.26 51.584 161.476 51.344 162.692 51.344H162.788C162.948 51.344 163.06 51.248 163.124 51.056C163.22 50.864 163.268 50.672 163.268 50.48H164.18Z" fill="#EC6C1F"/>
<path d="M143.902 72.56C143.902 72.72 144.014 72.848 144.238 72.944C144.494 73.04 144.734 73.088 144.958 73.088V74H139.006V72.224C137.31 73.696 135.342 74.432 133.102 74.432C129.742 74.432 127.278 73.472 125.71 71.552C124.142 69.6 123.358 67.168 123.358 64.256V53.36C123.358 53.2 123.23 53.072 122.974 52.976C122.75 52.88 122.526 52.832 122.302 52.832V51.92H130.462V52.832C130.238 52.832 129.998 52.88 129.742 52.976C129.518 53.072 129.406 53.2 129.406 53.36V63.872C129.406 65.248 129.758 66.416 130.462 67.376C131.166 68.304 132.254 68.768 133.726 68.768C135.134 68.768 136.19 68.336 136.894 67.472C137.598 66.608 137.95 65.504 137.95 64.16V53.36C137.95 53.2 137.822 53.072 137.566 52.976C137.342 52.88 137.118 52.832 136.894 52.832V51.92H144.958V52.832C144.734 52.832 144.494 52.88 144.238 52.976C144.014 53.072 143.902 53.2 143.902 53.36V72.56Z" fill="#EC6C1F"/>
<path d="M117.701 51.9201V52.8321C117.477 52.8321 117.237 52.8801 116.981 52.9761C116.757 53.0721 116.645 53.2001 116.645 53.3601L116.693 75.7761C116.693 79.7761 115.541 82.8641 113.237 85.0401C110.933 87.2481 107.797 88.3521 103.829 88.3521C102.197 88.3521 100.469 87.8881 98.6447 86.9601C96.8207 86.0641 95.1407 84.7201 93.6047 82.9281C93.5727 82.8321 93.4767 82.7841 93.3167 82.7841C93.0607 82.7841 92.7887 82.8961 92.5007 83.1201L91.9727 82.4001L97.9727 77.6481L98.5487 78.3681C98.3887 78.4961 98.2287 78.6721 98.0687 78.8961C97.9407 79.1201 97.9247 79.3121 98.0207 79.4721C98.8207 80.5921 99.6847 81.4241 100.613 81.9681C101.541 82.5121 102.661 82.7841 103.973 82.7841C106.053 82.7841 107.685 82.2721 108.869 81.2481C110.053 80.2561 110.645 78.7361 110.645 76.6881V72.3201C108.629 73.8881 106.309 74.6721 103.685 74.6721C101.317 74.6721 99.2047 74.1921 97.3487 73.2321C95.5247 72.2401 94.0847 70.8641 93.0287 69.1041C92.0047 67.3121 91.4927 65.2641 91.4927 62.9601C91.4927 60.6561 92.0367 58.6401 93.1247 56.9121C94.2127 55.1521 95.6847 53.8081 97.5407 52.8801C99.3967 51.9201 101.445 51.4401 103.685 51.4401C106.373 51.4401 108.693 52.1761 110.645 53.6481V51.9201H117.701ZM103.973 69.5361C106.149 69.5361 107.829 68.9601 109.013 67.8081C110.197 66.6241 110.789 65.0721 110.789 63.1521C110.789 61.2321 110.149 59.6481 108.869 58.4001C107.589 57.1521 105.957 56.5281 103.973 56.5281C102.053 56.5281 100.453 57.1361 99.1727 58.3521C97.9247 59.5681 97.3007 61.1361 97.3007 63.0561C97.3007 65.0401 97.9407 66.6241 99.2207 67.8081C100.501 68.9601 102.085 69.5361 103.973 69.5361Z" fill="#EC6C1F"/>
<path d="M86.4848 72.5601C86.4848 72.7201 86.5968 72.8481 86.8208 72.9441C87.0768 73.0401 87.3328 73.0881 87.5888 73.0881V74.0001H79.1408V73.0881C79.3968 73.0881 79.6368 73.0401 79.8608 72.9441C80.1168 72.8481 80.2448 72.7201 80.2448 72.5601V62.5761C80.2448 60.9441 79.8448 59.5521 79.0448 58.4001C78.2448 57.2161 77.0448 56.6241 75.4448 56.6241C73.8128 56.6241 72.4848 57.1681 71.4608 58.2561C70.4688 59.3441 69.9728 60.9121 69.9728 62.9601V72.5601C69.9728 72.7201 70.0848 72.8481 70.3088 72.9441C70.5648 73.0401 70.8208 73.0881 71.0768 73.0881V74.0001H62.6768V73.0881C62.9328 73.0881 63.1728 73.0401 63.3968 72.9441C63.6528 72.8481 63.7808 72.7201 63.7808 72.5601V53.3601C63.7808 53.2001 63.6528 53.0721 63.3968 52.9761C63.1728 52.8801 62.9488 52.8321 62.7248 52.8321V51.9201H69.9728V53.8881C70.8048 53.1201 71.7808 52.5281 72.9008 52.1121C74.0528 51.6641 75.2208 51.4401 76.4048 51.4401C78.4528 51.4401 80.2288 51.8721 81.7328 52.7361C83.2688 53.6001 84.4368 54.7681 85.2368 56.2401C86.0688 57.6801 86.4848 59.2961 86.4848 61.0881V72.5601Z" fill="#EC6C1F"/>
<path d="M46.7739 74.5761C44.4059 74.5761 42.3099 74.0801 40.4859 73.0881C38.6939 72.0641 37.2859 70.6721 36.2619 68.9121C35.2699 67.1521 34.7739 65.1681 34.7739 62.9601C34.7739 60.7841 35.2699 58.8001 36.2619 57.0081C37.2859 55.2161 38.7099 53.8081 40.5339 52.7841C42.3579 51.7281 44.4379 51.2001 46.7739 51.2001C49.0139 51.2001 51.0459 51.7121 52.8699 52.7361C54.6939 53.7281 56.1339 55.1201 57.1899 56.9121C58.2459 58.6721 58.7739 60.6881 58.7739 62.9601C58.7739 64.9441 58.2939 66.8321 57.3339 68.6241C56.4059 70.3841 55.0299 71.8241 53.2059 72.9441C51.3819 74.0321 49.2379 74.5761 46.7739 74.5761ZM46.7739 69.0561C48.6619 69.0561 50.1819 68.5121 51.3339 67.4241C52.5179 66.3041 53.1099 64.8641 53.1099 63.1041C53.1099 61.2801 52.5179 59.7761 51.3339 58.5921C50.1819 57.4081 48.6619 56.8161 46.7739 56.8161C45.0139 56.8161 43.5419 57.4081 42.3579 58.5921C41.1739 59.7441 40.5819 61.2001 40.5819 62.9601C40.5819 64.8161 41.1739 66.3041 42.3579 67.4241C43.5419 68.5121 45.0139 69.0561 46.7739 69.0561Z" fill="#EC6C1F"/>
<path d="M29.6402 72.56C29.6402 72.72 29.7522 72.848 29.9762 72.944C30.2322 73.04 30.4722 73.088 30.6962 73.088V74H23.8322V72.32C21.9122 73.888 19.6242 74.672 16.9682 74.672C14.6002 74.672 12.4882 74.192 10.6322 73.232C8.77618 72.272 7.32018 70.912 6.26418 69.152C5.20818 67.392 4.68018 65.36 4.68018 63.056C4.68018 60.72 5.20818 58.656 6.26418 56.864C7.35218 55.04 8.82418 53.632 10.6802 52.64C12.5682 51.616 14.6642 51.104 16.9682 51.104C19.6242 51.104 21.9122 51.856 23.8322 53.36V39.44C23.8322 39.28 23.7202 39.152 23.4962 39.056C23.2722 38.96 23.0482 38.912 22.8242 38.912V38H30.6482V38.912C30.4242 38.912 30.2002 38.96 29.9762 39.056C29.7522 39.152 29.6402 39.28 29.6402 39.44V72.56ZM17.2562 69.536C18.5042 69.536 19.6402 69.248 20.6642 68.672C21.7202 68.096 22.5362 67.328 23.1122 66.368C23.7202 65.376 24.0242 64.336 24.0242 63.248C24.0242 61.296 23.3842 59.696 22.1042 58.448C20.8562 57.168 19.2402 56.528 17.2562 56.528C15.2722 56.528 13.6402 57.152 12.3602 58.4C11.1122 59.616 10.4882 61.2 10.4882 63.152C10.4882 65.104 11.1282 66.656 12.4082 67.808C13.7202 68.96 15.3362 69.536 17.2562 69.536Z" fill="#EC6C1F"/>
</svg>
