<svg width="67" height="67" viewBox="0 0 67 67" fill="none" xmlns="http://www.w3.org/2000/svg">
<path d="M4 37.6132V12H11.4595V37.0423C11.4595 44.7582 14.955 48.6162 21.9459 48.6162C28.973 48.6162 32.4865 44.7582 32.4865 37.0423V12H40V37.6132C40 43.1493 38.4144 47.4398 35.2432 50.4846C32.0721 53.4949 27.6216 55 21.8919 55C16.2342 55 11.8378 53.4949 8.7027 50.4846C5.56757 47.4398 4 43.1493 4 37.6132Z" fill="black"/>
<path fill-rule="evenodd" clip-rule="evenodd" d="M12.4595 11H3V37.6132C3 43.3434 4.62841 47.9216 8.00599 51.202L8.01011 51.2059C11.3825 54.444 16.0567 56 21.8919 56C27.7958 56 32.5227 54.4459 35.9317 51.2099L35.9358 51.2059C37.6009 49.6072 38.846 47.6996 39.6849 45.5L41 37.6132V11H31.4865V37.0423C31.4865 40.768 30.6362 43.3757 29.112 45.0494C27.604 46.7053 25.28 47.6162 21.9459 47.6162C18.6314 47.6162 16.3216 46.7062 14.8221 45.0513C13.3058 43.3776 12.4595 40.7691 12.4595 37.0423V11ZM8.7027 50.4846C5.56757 47.4398 4 43.1493 4 37.6132V12H11.4595V37.0423C11.4595 44.7582 14.955 48.6162 21.9459 48.6162C28.973 48.6162 32.4865 44.7582 32.4865 37.0423V12H40V37.6132C40 43.1493 38.4144 47.4398 35.2432 50.4846C32.0721 53.4949 27.6216 55 21.8919 55C16.2342 55 11.8378 53.4949 8.7027 50.4846Z" fill="black"/>
<path d="M62.7823 52.5236C62.7823 52.7112 62.9114 52.8613 63.1697 52.9738C63.4649 53.0864 63.7417 53.1427 64 53.1427V54.212H56.0849V52.2421C53.8708 54.0807 51.2325 55 48.1697 55C45.4391 55 43.0037 54.4372 40.8635 53.3115C38.7232 52.1859 37.0443 50.5912 35.8266 48.5275C34.6089 46.4638 34 44.0812 34 41.3796C34 38.6405 34.6089 36.2203 35.8266 34.1191C37.0812 31.9804 38.7786 30.3294 40.9188 29.1662C43.0959 27.9655 45.5129 27.3652 48.1697 27.3652C51.2325 27.3652 53.8708 28.2469 56.0849 30.0105V13.6885C56.0849 13.5009 55.9557 13.3508 55.6974 13.2382C55.4391 13.1257 55.1808 13.0694 54.9225 13.0694V12H63.9447V13.0694C63.6863 13.0694 63.428 13.1257 63.1697 13.2382C62.9114 13.3508 62.7823 13.5009 62.7823 13.6885V52.5236ZM48.5018 48.9777C49.941 48.9777 51.2509 48.6401 52.4317 47.9647C53.6494 47.2893 54.5904 46.3887 55.2546 45.2631C55.9557 44.0999 56.3063 42.8805 56.3063 41.6047C56.3063 39.3159 55.5683 37.4398 54.0923 35.9764C52.6531 34.4756 50.7897 33.7251 48.5018 33.7251C46.214 33.7251 44.3321 34.4568 42.8561 35.9202C41.417 37.346 40.6974 39.2033 40.6974 41.4921C40.6974 43.781 41.4354 45.6008 42.9114 46.9516C44.4244 48.3024 46.2878 48.9777 48.5018 48.9777Z" fill="#EC6C1F"/>
</svg>
