<svg width="318" height="64" viewBox="0 0 318 64" fill="none" xmlns="http://www.w3.org/2000/svg">
<path d="M105.718 31.952C105.718 29.456 106.282 27.232 107.41 25.28C108.573 23.328 110.124 21.776 112.062 20.624C114 19.472 116.168 18.896 118.564 18.896C120.467 18.896 122.194 19.296 123.745 20.096C125.33 20.896 126.582 22.032 127.498 23.504L127.604 19.664H134V44H127.604L127.498 40.16C125.524 43.232 122.405 44.768 118.141 44.768C115.745 44.768 113.595 44.224 111.692 43.136C109.824 42.016 108.361 40.496 107.304 38.576C106.247 36.624 105.718 34.416 105.718 31.952ZM126.695 31.856C126.695 29.616 126.453 27.808 125.043 26.432C123.634 25.024 122.353 24.32 120.097 24.32C117.842 24.32 115.991 25.024 114.546 26.432C113.137 27.808 112.432 29.616 112.432 31.856C112.432 34.064 113.137 35.872 114.546 37.28C115.991 38.688 117.842 39.392 120.097 39.392C122.353 39.392 123.634 38.688 125.043 37.28C126.453 35.872 126.695 34.064 126.695 31.856Z" fill="black"/>
<path fill-rule="evenodd" clip-rule="evenodd" d="M106.551 24.7682C107.798 22.6742 109.468 21.0022 111.551 19.7644C113.654 18.5147 115.999 17.896 118.564 17.896C120.61 17.896 122.495 18.327 124.199 19.2052C125.081 19.6507 125.873 20.1933 126.571 20.8318L126.631 18.664H135V45H126.631L126.571 42.8291C124.446 44.8026 121.605 45.768 118.141 45.768C115.587 45.768 113.264 45.1865 111.195 44.0041L111.186 43.999L111.178 43.9936C109.157 42.7821 107.57 41.1322 106.428 39.0584L106.425 39.0523C105.28 36.9385 104.718 34.5637 104.718 31.952C104.718 29.2997 105.319 26.8997 106.544 24.7797L106.551 24.7682ZM126.533 41.4385C126.88 41.0468 127.202 40.6207 127.498 40.16L127.604 44H134V19.664H127.604L127.498 23.504C127.209 23.0406 126.888 22.6105 126.533 22.2138C125.761 21.3501 124.831 20.6442 123.745 20.096C122.194 19.296 120.467 18.896 118.564 18.896C116.168 18.896 114 19.472 112.062 20.624C110.124 21.776 108.573 23.328 107.41 25.28C106.282 27.232 105.718 29.456 105.718 31.952C105.718 34.416 106.247 36.624 107.304 38.576C108.361 40.496 109.824 42.016 111.692 43.136C113.595 44.224 115.745 44.768 118.141 44.768C121.766 44.768 124.563 43.6581 126.533 41.4385ZM124.337 27.1395C123.678 26.482 123.104 26.0432 122.475 25.7592C121.854 25.478 121.116 25.32 120.097 25.32C118.069 25.32 116.48 25.9443 115.244 27.1482C114.055 28.3095 113.432 29.8454 113.432 31.856C113.432 33.8277 114.051 35.3695 115.249 36.5681C116.484 37.7692 118.071 38.392 120.097 38.392C121.116 38.392 121.854 38.234 122.475 37.9528C123.104 37.6688 123.678 37.23 124.337 36.5725C125.442 35.4682 125.695 34.028 125.695 31.856C125.695 29.645 125.44 28.2162 124.345 27.1476L124.337 27.1395ZM114.546 37.28C113.137 35.872 112.432 34.064 112.432 31.856C112.432 29.616 113.137 27.808 114.546 26.432C115.991 25.024 117.842 24.32 120.097 24.32C122.353 24.32 123.634 25.024 125.043 26.432C126.453 27.808 126.695 29.616 126.695 31.856C126.695 34.064 126.453 35.872 125.043 37.28C123.634 38.688 122.353 39.392 120.097 39.392C117.842 39.392 115.991 38.688 114.546 37.28Z" fill="black"/>
<path d="M91.9682 17.5H85.5718V44H92.2325V32.72C92.2325 30.224 92.7964 28.304 93.9241 26.96C95.0519 25.584 96.6554 24.896 98.7347 24.896C99.8624 24.896 100.973 25.088 102.065 25.472L102.647 19.808C102.647 19.808 101.365 19 98.6117 19C95.8584 19 93.6558 20.5 93.6558 20.5C93.6558 20.5 92.5545 21.5 91.9682 22.5V17.5Z" fill="black"/>
<path fill-rule="evenodd" clip-rule="evenodd" d="M84.5718 16.5H92.9682V19.7737L92.9776 19.7651L92.9814 19.7616L92.9827 19.7605C92.9828 19.7604 92.9836 19.7597 93.6558 20.5C93.6558 20.5 93.3464 20.781 92.9682 21.194C92.633 21.5601 92.2437 22.0301 91.9682 22.5V17.5H85.5718V44H92.2325V32.72C92.2325 30.224 92.7964 28.304 93.9241 26.96C95.0519 25.584 96.6554 24.896 98.7347 24.896C99.5284 24.896 100.313 24.9911 101.09 25.1813C101.416 25.2614 101.741 25.3583 102.065 25.472L102.647 19.808L103.18 18.9621L103.705 19.293L102.93 26.8361L101.733 26.4155C100.745 26.0679 99.7465 25.896 98.7347 25.896C96.8986 25.896 95.6023 26.49 94.6976 27.5939L94.6902 27.6029C93.7664 28.7039 93.2325 30.3614 93.2325 32.72V45H84.5718V16.5ZM102.647 19.808C102.647 19.808 101.365 19 98.6117 19C95.8584 19 93.6558 20.5 93.6558 20.5C93.0929 19.6735 93.0932 19.6733 93.0934 19.6731L93.0952 19.6719L93.0983 19.6698L93.107 19.664L93.134 19.6462C93.1563 19.6316 93.187 19.6118 93.2257 19.5876C93.3032 19.5392 93.413 19.4728 93.552 19.3945C93.8295 19.2381 94.2259 19.0326 94.7148 18.8277C95.6855 18.4209 97.0598 18 98.6117 18C100.088 18 101.194 18.2168 101.952 18.4472C102.331 18.5623 102.621 18.6801 102.824 18.7748C102.926 18.8221 103.007 18.8635 103.066 18.8958C103.095 18.912 103.12 18.9259 103.139 18.9371L103.163 18.9518L103.173 18.9575L103.176 18.96L103.178 18.9611L103.18 18.9621C103.18 18.9624 103.18 18.9621 102.647 19.808ZM93.6558 20.5L92.9836 19.7597L93.0352 19.7127L93.0934 19.6731L93.6558 20.5Z" fill="black"/>
<path d="M66.4268 24.6561H60.9819V19.6641H66.4268V12.9921H73.0876V19.6641H79.6955V24.6561H73.0876V44.0001H66.4268V24.6561Z" fill="black"/>
<path fill-rule="evenodd" clip-rule="evenodd" d="M59.9819 25.6561V18.6641H65.4268V11.9921H74.0876V18.6641H80.6955V25.6561H74.0876V45.0001H65.4268V25.6561H59.9819ZM66.4268 24.6561V44.0001H73.0876V24.6561H79.6955V19.6641H73.0876V12.9921H66.4268V19.6641H60.9819V24.6561H66.4268Z" fill="black"/>
<path d="M49.022 5.12H55.6827V44H49.022V5.12Z" fill="black"/>
<path fill-rule="evenodd" clip-rule="evenodd" d="M48.022 4.12H56.6827V45H48.022V4.12ZM49.022 5.12V44H55.6827V5.12H49.022Z" fill="black"/>
<path d="M5 28.688V5H12.2951V28.16C12.2951 35.296 15.7136 38.864 22.5506 38.864C29.4228 38.864 32.8589 35.296 32.8589 28.16V5H40.2068V28.688C40.2068 33.808 38.6562 37.776 35.5549 40.592C32.4536 43.376 28.1012 44.768 22.4977 44.768C16.9647 44.768 12.6651 43.376 9.59909 40.592C6.53303 37.776 5 33.808 5 28.688Z" fill="black"/>
<path fill-rule="evenodd" clip-rule="evenodd" d="M4 4H13.2951V28.16C13.2951 31.5843 14.116 33.9671 15.581 35.4962C17.0385 37.0174 19.2974 37.864 22.5506 37.864C25.8227 37.864 28.0955 37.0166 29.5615 35.4944C31.0342 33.9651 31.8589 31.5831 31.8589 28.16V4H41.2068V28.688C41.2068 34.0223 39.5825 38.2856 36.2271 41.3324L36.2229 41.3362C32.8828 44.3346 28.2617 45.768 22.4977 45.768C16.8011 45.768 12.2314 44.3329 8.92686 41.3324L8.92264 41.3285C5.60437 38.2809 4 34.0187 4 28.688V4ZM5 28.688C5 33.808 6.53303 37.776 9.59909 40.592C12.6651 43.376 16.9647 44.768 22.4977 44.768C28.1012 44.768 32.4536 43.376 35.5549 40.592C38.6562 37.776 40.2068 33.808 40.2068 28.688V5H32.8589V28.16C32.8589 35.296 29.4228 38.864 22.5506 38.864C15.7136 38.864 12.2951 35.296 12.2951 28.16V5H5V28.688Z" fill="black"/>
<path d="M308.962 18.8881C307.938 18.8881 307.058 18.5361 306.322 17.8321C305.618 17.1281 305.266 16.2481 305.266 15.1921C305.266 14.2001 305.618 13.3521 306.322 12.6481C307.058 11.9121 307.938 11.5441 308.962 11.5441C309.986 11.5441 310.85 11.9121 311.554 12.6481C312.258 13.3521 312.61 14.2001 312.61 15.1921C312.61 16.2481 312.258 17.1281 311.554 17.8321C310.85 18.5361 309.986 18.8881 308.962 18.8881ZM305.842 24.3601C305.842 24.2001 305.714 24.0721 305.458 23.9761C305.234 23.8801 305.01 23.8321 304.786 23.8321V22.9201H313.042V23.8321C312.818 23.8321 312.578 23.8801 312.322 23.9761C312.098 24.0721 311.986 24.2001 311.986 24.3601V43.5601C311.986 43.7201 312.098 43.8481 312.322 43.9441C312.578 44.0401 312.818 44.0881 313.042 44.0881V45.0001H304.786V44.0881C305.01 44.0881 305.234 44.0401 305.458 43.9441C305.714 43.8481 305.842 43.7201 305.842 43.5601V24.3601Z" fill="#EC6C1F"/>
<path d="M301.18 21.48V29.208H300.268C300.268 28.984 300.22 28.728 300.124 28.44C300.028 28.152 299.9 27.992 299.74 27.96H299.404C298.412 27.96 297.404 28.248 296.38 28.824C295.388 29.368 294.556 30.104 293.884 31.032C293.244 31.928 292.924 32.888 292.924 33.912V43.56C292.924 43.72 293.036 43.848 293.26 43.944C293.516 44.04 293.756 44.088 293.98 44.088V45H285.916V44.088C286.14 44.088 286.364 44.04 286.588 43.944C286.844 43.848 286.972 43.72 286.972 43.56V24.36C286.972 24.2 286.844 24.072 286.588 23.976C286.364 23.88 286.14 23.832 285.916 23.832V22.92H292.924V24.984C293.788 24.184 294.828 23.544 296.044 23.064C297.26 22.584 298.476 22.344 299.692 22.344H299.788C299.948 22.344 300.06 22.248 300.124 22.056C300.22 21.864 300.268 21.672 300.268 21.48H301.18Z" fill="#EC6C1F"/>
<path d="M280.902 43.56C280.902 43.72 281.014 43.848 281.238 43.944C281.494 44.04 281.734 44.088 281.958 44.088V45H276.006V43.224C274.31 44.696 272.342 45.432 270.102 45.432C266.742 45.432 264.278 44.472 262.71 42.552C261.142 40.6 260.358 38.168 260.358 35.256V24.36C260.358 24.2 260.23 24.072 259.974 23.976C259.75 23.88 259.526 23.832 259.302 23.832V22.92H267.462V23.832C267.238 23.832 266.998 23.88 266.742 23.976C266.518 24.072 266.406 24.2 266.406 24.36V34.872C266.406 36.248 266.758 37.416 267.462 38.376C268.166 39.304 269.254 39.768 270.726 39.768C272.134 39.768 273.19 39.336 273.894 38.472C274.598 37.608 274.95 36.504 274.95 35.16V24.36C274.95 24.2 274.822 24.072 274.566 23.976C274.342 23.88 274.118 23.832 273.894 23.832V22.92H281.958V23.832C281.734 23.832 281.494 23.88 281.238 23.976C281.014 24.072 280.902 24.2 280.902 24.36V43.56Z" fill="#EC6C1F"/>
<path d="M254.701 22.9201V23.8321C254.477 23.8321 254.237 23.8801 253.981 23.9761C253.757 24.0721 253.645 24.2001 253.645 24.3601L253.693 46.7761C253.693 50.7761 252.541 53.8641 250.237 56.0401C247.933 58.2481 244.797 59.3521 240.829 59.3521C239.197 59.3521 237.469 58.8881 235.645 57.9601C233.821 57.0641 232.141 55.7201 230.605 53.9281C230.573 53.8321 230.477 53.7841 230.317 53.7841C230.061 53.7841 229.789 53.8961 229.501 54.1201L228.973 53.4001L234.973 48.6481L235.549 49.3681C235.389 49.4961 235.229 49.6721 235.069 49.8961C234.941 50.1201 234.925 50.3121 235.021 50.4721C235.821 51.5921 236.685 52.4241 237.613 52.9681C238.541 53.5121 239.661 53.7841 240.973 53.7841C243.053 53.7841 244.685 53.2721 245.869 52.2481C247.053 51.2561 247.645 49.7361 247.645 47.6881V43.3201C245.629 44.8881 243.309 45.6721 240.685 45.6721C238.317 45.6721 236.205 45.1921 234.349 44.2321C232.525 43.2401 231.085 41.8641 230.029 40.1041C229.005 38.3121 228.493 36.2641 228.493 33.9601C228.493 31.6561 229.037 29.6401 230.125 27.9121C231.213 26.1521 232.685 24.8081 234.541 23.8801C236.397 22.9201 238.445 22.4401 240.685 22.4401C243.373 22.4401 245.693 23.1761 247.645 24.6481V22.9201H254.701ZM240.973 40.5361C243.149 40.5361 244.829 39.9601 246.013 38.8081C247.197 37.6241 247.789 36.0721 247.789 34.1521C247.789 32.2321 247.149 30.6481 245.869 29.4001C244.589 28.1521 242.957 27.5281 240.973 27.5281C239.053 27.5281 237.453 28.1361 236.173 29.3521C234.925 30.5681 234.301 32.1361 234.301 34.0561C234.301 36.0401 234.941 37.6241 236.221 38.8081C237.501 39.9601 239.085 40.5361 240.973 40.5361Z" fill="#EC6C1F"/>
<path d="M223.485 43.5601C223.485 43.7201 223.597 43.8481 223.821 43.9441C224.077 44.0401 224.333 44.0881 224.589 44.0881V45.0001H216.141V44.0881C216.397 44.0881 216.637 44.0401 216.861 43.9441C217.117 43.8481 217.245 43.7201 217.245 43.5601V33.5761C217.245 31.9441 216.845 30.5521 216.045 29.4001C215.245 28.2161 214.045 27.6241 212.445 27.6241C210.813 27.6241 209.485 28.1681 208.461 29.2561C207.469 30.3441 206.973 31.9121 206.973 33.9601V43.5601C206.973 43.7201 207.085 43.8481 207.309 43.9441C207.565 44.0401 207.821 44.0881 208.077 44.0881V45.0001H199.677V44.0881C199.933 44.0881 200.173 44.0401 200.397 43.9441C200.653 43.8481 200.781 43.7201 200.781 43.5601V24.3601C200.781 24.2001 200.653 24.0721 200.397 23.9761C200.173 23.8801 199.949 23.8321 199.725 23.8321V22.9201H206.973V24.8881C207.805 24.1201 208.781 23.5281 209.901 23.1121C211.053 22.6641 212.221 22.4401 213.405 22.4401C215.453 22.4401 217.229 22.8721 218.733 23.7361C220.269 24.6001 221.437 25.7681 222.237 27.2401C223.069 28.6801 223.485 30.2961 223.485 32.0881V43.5601Z" fill="#EC6C1F"/>
<path d="M183.774 45.5761C181.406 45.5761 179.31 45.0801 177.486 44.0881C175.694 43.0641 174.286 41.6721 173.262 39.9121C172.27 38.1521 171.774 36.1681 171.774 33.9601C171.774 31.7841 172.27 29.8001 173.262 28.0081C174.286 26.2161 175.71 24.8081 177.534 23.7841C179.358 22.7281 181.438 22.2001 183.774 22.2001C186.014 22.2001 188.046 22.7121 189.87 23.7361C191.694 24.7281 193.134 26.1201 194.19 27.9121C195.246 29.6721 195.774 31.6881 195.774 33.9601C195.774 35.9441 195.294 37.8321 194.334 39.6241C193.406 41.3841 192.03 42.8241 190.206 43.9441C188.382 45.0321 186.238 45.5761 183.774 45.5761ZM183.774 40.0561C185.662 40.0561 187.182 39.5121 188.334 38.4241C189.518 37.3041 190.11 35.8641 190.11 34.1041C190.11 32.2801 189.518 30.7761 188.334 29.5921C187.182 28.4081 185.662 27.8161 183.774 27.8161C182.014 27.8161 180.542 28.4081 179.358 29.5921C178.174 30.7441 177.582 32.2001 177.582 33.9601C177.582 35.8161 178.174 37.3041 179.358 38.4241C180.542 39.5121 182.014 40.0561 183.774 40.0561Z" fill="#EC6C1F"/>
<path d="M166.64 43.56C166.64 43.72 166.752 43.848 166.976 43.944C167.232 44.04 167.472 44.088 167.696 44.088V45H160.832V43.32C158.912 44.888 156.624 45.672 153.968 45.672C151.6 45.672 149.488 45.192 147.632 44.232C145.776 43.272 144.32 41.912 143.264 40.152C142.208 38.392 141.68 36.36 141.68 34.056C141.68 31.72 142.208 29.656 143.264 27.864C144.352 26.04 145.824 24.632 147.68 23.64C149.568 22.616 151.664 22.104 153.968 22.104C156.624 22.104 158.912 22.856 160.832 24.36V10.44C160.832 10.28 160.72 10.152 160.496 10.056C160.272 9.96 160.048 9.912 159.824 9.912V9H167.648V9.912C167.424 9.912 167.2 9.96 166.976 10.056C166.752 10.152 166.64 10.28 166.64 10.44V43.56ZM154.256 40.536C155.504 40.536 156.64 40.248 157.664 39.672C158.72 39.096 159.536 38.328 160.112 37.368C160.72 36.376 161.024 35.336 161.024 34.248C161.024 32.296 160.384 30.696 159.104 29.448C157.856 28.168 156.24 27.528 154.256 27.528C152.272 27.528 150.64 28.152 149.36 29.4C148.112 30.616 147.488 32.2 147.488 34.152C147.488 36.104 148.128 37.656 149.408 38.808C150.72 39.96 152.336 40.536 154.256 40.536Z" fill="#EC6C1F"/>
</svg>
